<svg xmlns="http://www.w3.org/2000/svg" xmlns:xlink="http://www.w3.org/1999/xlink" width="40" zoomAndPan="magnify" viewBox="0 0 30 30.000001" height="40" preserveAspectRatio="xMidYMid meet" version="1.0"><defs><clipPath id="8df7a71e42"><path d="M 2.082031 1.742188 L 28.933594 1.742188 L 28.933594 27.871094 L 2.082031 27.871094 Z M 2.082031 1.742188 " clip-rule="nonzero"/></clipPath></defs><g clip-path="url(#8df7a71e42)"><path fill="#ffffff" d="M 15.515625 1.75 C 8.09375 1.75 2.082031 7.621094 2.082031 14.867188 C 2.082031 21.378906 6.941406 26.785156 13.304688 27.808594 L 13.304688 18.914062 L 9.882812 18.914062 L 9.882812 15.015625 L 13.304688 15.015625 L 13.304688 12.1875 C 13.304688 9.121094 15.851562 7.042969 18.992188 7.042969 C 20.386719 7.042969 21.257812 7.246094 21.257812 7.246094 L 21.257812 10.519531 L 18.992188 10.519531 C 18.050781 10.519531 17.28125 11.269531 17.28125 12.1875 L 17.28125 15.015625 L 20.945312 15.015625 L 20.433594 18.914062 L 17.28125 18.914062 L 17.28125 27.863281 C 23.851562 27.011719 28.925781 21.515625 28.925781 14.867188 C 28.933594 7.621094 22.921875 1.75 15.515625 1.75 Z M 15.515625 1.75 " fill-opacity="1" fill-rule="nonzero"/></g></svg>