<svg xmlns="http://www.w3.org/2000/svg" xmlns:xlink="http://www.w3.org/1999/xlink" width="40" zoomAndPan="magnify" viewBox="0 0 30 30.000001" height="40" preserveAspectRatio="xMidYMid meet" version="1.0"><defs><clipPath id="7053ce791c"><path d="M 2.042969 1.886719 L 28.171875 1.886719 L 28.171875 28.015625 L 2.042969 28.015625 Z M 2.042969 1.886719 " clip-rule="nonzero"/></clipPath></defs><path fill="#ffffff" d="M 18.914062 7.292969 L 11.304688 7.292969 C 11.050781 7.292969 10.800781 7.316406 10.554688 7.367188 C 10.304688 7.417969 10.0625 7.492188 9.832031 7.585938 C 9.597656 7.683594 9.375 7.804688 9.164062 7.945312 C 8.953125 8.085938 8.757812 8.246094 8.582031 8.421875 C 8.402344 8.601562 8.242188 8.796875 8.101562 9.007812 C 7.960938 9.21875 7.84375 9.441406 7.746094 9.671875 C 7.648438 9.90625 7.574219 10.148438 7.523438 10.394531 C 7.476562 10.644531 7.449219 10.894531 7.449219 11.148438 L 7.449219 18.753906 C 7.449219 19.007812 7.476562 19.257812 7.523438 19.507812 C 7.574219 19.753906 7.648438 19.996094 7.746094 20.230469 C 7.84375 20.464844 7.960938 20.6875 8.101562 20.894531 C 8.242188 21.105469 8.402344 21.300781 8.582031 21.480469 C 8.757812 21.660156 8.953125 21.820312 9.164062 21.960938 C 9.375 22.101562 9.597656 22.21875 9.832031 22.316406 C 10.0625 22.414062 10.304688 22.484375 10.554688 22.535156 C 10.800781 22.585938 11.050781 22.609375 11.304688 22.609375 L 18.914062 22.609375 C 19.164062 22.609375 19.417969 22.585938 19.664062 22.535156 C 19.914062 22.484375 20.152344 22.414062 20.386719 22.316406 C 20.621094 22.21875 20.84375 22.101562 21.054688 21.960938 C 21.261719 21.820312 21.457031 21.660156 21.636719 21.480469 C 21.816406 21.300781 21.976562 21.105469 22.117188 20.894531 C 22.257812 20.6875 22.375 20.464844 22.472656 20.230469 C 22.570312 19.996094 22.644531 19.753906 22.691406 19.507812 C 22.742188 19.257812 22.765625 19.007812 22.765625 18.753906 L 22.765625 11.148438 C 22.765625 10.894531 22.742188 10.644531 22.691406 10.394531 C 22.644531 10.148438 22.570312 9.90625 22.472656 9.671875 C 22.375 9.441406 22.257812 9.21875 22.117188 9.007812 C 21.976562 8.796875 21.816406 8.601562 21.636719 8.421875 C 21.457031 8.246094 21.261719 8.085938 21.054688 7.945312 C 20.84375 7.804688 20.621094 7.683594 20.386719 7.585938 C 20.152344 7.492188 19.914062 7.417969 19.664062 7.367188 C 19.417969 7.316406 19.164062 7.292969 18.914062 7.292969 Z M 21.867188 18.753906 C 21.867188 19.148438 21.789062 19.523438 21.640625 19.886719 C 21.492188 20.246094 21.277344 20.566406 21 20.84375 C 20.722656 21.121094 20.40625 21.332031 20.042969 21.484375 C 19.679688 21.632812 19.304688 21.707031 18.914062 21.710938 L 11.304688 21.710938 C 10.914062 21.707031 10.535156 21.632812 10.175781 21.484375 C 9.8125 21.332031 9.492188 21.121094 9.21875 20.84375 C 8.941406 20.566406 8.726562 20.246094 8.578125 19.886719 C 8.425781 19.523438 8.351562 19.148438 8.351562 18.753906 L 8.351562 11.148438 C 8.351562 10.757812 8.425781 10.378906 8.578125 10.019531 C 8.726562 9.65625 8.941406 9.335938 9.21875 9.058594 C 9.492188 8.78125 9.8125 8.570312 10.175781 8.417969 C 10.535156 8.269531 10.914062 8.195312 11.304688 8.195312 L 18.914062 8.195312 C 19.304688 8.195312 19.679688 8.269531 20.042969 8.417969 C 20.40625 8.570312 20.722656 8.78125 21 9.058594 C 21.277344 9.335938 21.492188 9.65625 21.640625 10.019531 C 21.789062 10.378906 21.867188 10.757812 21.867188 11.148438 Z M 21.867188 18.753906 " fill-opacity="1" fill-rule="nonzero"/><path fill="#ffffff" d="M 15.109375 11.242188 C 14.617188 11.242188 14.144531 11.335938 13.6875 11.523438 C 13.234375 11.710938 12.832031 11.980469 12.484375 12.328125 C 12.136719 12.675781 11.871094 13.078125 11.683594 13.53125 C 11.492188 13.988281 11.398438 14.460938 11.398438 14.953125 C 11.398438 15.445312 11.492188 15.917969 11.683594 16.371094 C 11.871094 16.824219 12.136719 17.226562 12.484375 17.574219 C 12.832031 17.921875 13.234375 18.191406 13.6875 18.378906 C 14.144531 18.566406 14.617188 18.660156 15.109375 18.660156 C 15.601562 18.660156 16.074219 18.566406 16.527344 18.378906 C 16.984375 18.191406 17.382812 17.921875 17.730469 17.574219 C 18.078125 17.226562 18.347656 16.824219 18.535156 16.371094 C 18.722656 15.917969 18.816406 15.445312 18.816406 14.953125 C 18.816406 14.460938 18.722656 13.988281 18.535156 13.53125 C 18.347656 13.078125 18.078125 12.675781 17.730469 12.328125 C 17.382812 11.980469 16.980469 11.714844 16.527344 11.527344 C 16.074219 11.335938 15.601562 11.242188 15.109375 11.242188 Z M 15.109375 17.761719 C 14.738281 17.761719 14.378906 17.6875 14.035156 17.546875 C 13.691406 17.402344 13.386719 17.199219 13.121094 16.9375 C 12.859375 16.675781 12.65625 16.371094 12.515625 16.027344 C 12.371094 15.683594 12.300781 15.324219 12.300781 14.953125 C 12.300781 14.578125 12.371094 14.222656 12.515625 13.875 C 12.65625 13.53125 12.859375 13.230469 13.121094 12.964844 C 13.386719 12.703125 13.691406 12.5 14.035156 12.355469 C 14.378906 12.214844 14.738281 12.144531 15.109375 12.144531 C 15.480469 12.144531 15.839844 12.214844 16.183594 12.355469 C 16.527344 12.5 16.832031 12.703125 17.09375 12.964844 C 17.359375 13.230469 17.5625 13.53125 17.703125 13.875 C 17.847656 14.222656 17.917969 14.578125 17.917969 14.953125 C 17.917969 15.324219 17.84375 15.683594 17.703125 16.027344 C 17.558594 16.371094 17.355469 16.671875 17.09375 16.9375 C 16.832031 17.199219 16.527344 17.402344 16.183594 17.546875 C 15.839844 17.6875 15.480469 17.757812 15.109375 17.761719 Z M 15.109375 17.761719 " fill-opacity="1" fill-rule="nonzero"/><path fill="#ffffff" d="M 19.359375 9.328125 C 19.179688 9.328125 19.011719 9.363281 18.847656 9.429688 C 18.679688 9.5 18.535156 9.597656 18.410156 9.722656 C 18.285156 9.847656 18.1875 9.992188 18.121094 10.15625 C 18.050781 10.320312 18.019531 10.492188 18.019531 10.671875 C 18.019531 10.847656 18.050781 11.019531 18.121094 11.183594 C 18.1875 11.347656 18.285156 11.492188 18.410156 11.617188 C 18.535156 11.742188 18.679688 11.839844 18.847656 11.910156 C 19.011719 11.976562 19.179688 12.011719 19.359375 12.011719 C 19.535156 12.011719 19.707031 11.976562 19.871094 11.910156 C 20.035156 11.839844 20.179688 11.742188 20.308594 11.617188 C 20.433594 11.492188 20.53125 11.347656 20.597656 11.183594 C 20.664062 11.019531 20.699219 10.847656 20.699219 10.671875 C 20.699219 10.492188 20.664062 10.320312 20.597656 10.15625 C 20.527344 9.992188 20.433594 9.847656 20.304688 9.722656 C 20.179688 9.597656 20.035156 9.5 19.871094 9.433594 C 19.707031 9.363281 19.535156 9.328125 19.359375 9.328125 Z M 19.359375 11.109375 C 19.238281 11.109375 19.132812 11.066406 19.046875 10.980469 C 18.960938 10.894531 18.917969 10.792969 18.917969 10.671875 C 18.917969 10.546875 18.960938 10.445312 19.046875 10.359375 C 19.132812 10.273438 19.238281 10.230469 19.359375 10.230469 C 19.480469 10.230469 19.582031 10.273438 19.667969 10.359375 C 19.753906 10.445312 19.796875 10.546875 19.796875 10.671875 C 19.796875 10.792969 19.753906 10.894531 19.667969 10.980469 C 19.582031 11.066406 19.480469 11.109375 19.359375 11.109375 Z M 19.359375 11.109375 " fill-opacity="1" fill-rule="nonzero"/><g clip-path="url(#7053ce791c)"><path fill="#ffffff" d="M 15.109375 1.886719 C 14.25 1.886719 13.402344 1.972656 12.558594 2.136719 C 11.71875 2.304688 10.902344 2.554688 10.109375 2.882812 C 9.316406 3.210938 8.5625 3.613281 7.851562 4.089844 C 7.136719 4.566406 6.476562 5.105469 5.871094 5.714844 C 5.265625 6.320312 4.722656 6.980469 4.246094 7.691406 C 3.769531 8.40625 3.367188 9.160156 3.039062 9.953125 C 2.710938 10.746094 2.460938 11.5625 2.296875 12.402344 C 2.128906 13.246094 2.042969 14.09375 2.042969 14.953125 C 2.042969 15.808594 2.128906 16.660156 2.296875 17.5 C 2.460938 18.339844 2.710938 19.160156 3.039062 19.953125 C 3.367188 20.742188 3.769531 21.496094 4.246094 22.210938 C 4.722656 22.921875 5.265625 23.582031 5.871094 24.191406 C 6.476562 24.796875 7.136719 25.335938 7.851562 25.8125 C 8.5625 26.289062 9.316406 26.695312 10.109375 27.023438 C 10.902344 27.351562 11.71875 27.597656 12.558594 27.765625 C 13.402344 27.933594 14.25 28.015625 15.109375 28.015625 C 15.964844 28.015625 16.816406 27.933594 17.65625 27.765625 C 18.5 27.597656 19.316406 27.351562 20.109375 27.023438 C 20.902344 26.695312 21.652344 26.289062 22.367188 25.8125 C 23.082031 25.335938 23.742188 24.796875 24.347656 24.191406 C 24.953125 23.582031 25.496094 22.921875 25.972656 22.210938 C 26.449219 21.496094 26.851562 20.742188 27.179688 19.953125 C 27.507812 19.160156 27.753906 18.339844 27.921875 17.5 C 28.089844 16.660156 28.171875 15.808594 28.171875 14.953125 C 28.171875 14.09375 28.085938 13.246094 27.917969 12.402344 C 27.75 11.5625 27.503906 10.746094 27.175781 9.953125 C 26.847656 9.164062 26.445312 8.410156 25.96875 7.695312 C 25.492188 6.984375 24.949219 6.324219 24.34375 5.71875 C 23.734375 5.113281 23.078125 4.570312 22.363281 4.09375 C 21.652344 3.617188 20.898438 3.214844 20.105469 2.886719 C 19.3125 2.558594 18.496094 2.308594 17.65625 2.140625 C 16.816406 1.972656 15.964844 1.886719 15.109375 1.886719 Z M 15.109375 27.113281 C 14.308594 27.113281 13.519531 27.039062 12.734375 26.882812 C 11.953125 26.726562 11.191406 26.496094 10.453125 26.1875 C 9.714844 25.882812 9.015625 25.507812 8.351562 25.066406 C 7.6875 24.621094 7.074219 24.117188 6.507812 23.550781 C 5.941406 22.988281 5.4375 22.375 4.996094 21.710938 C 4.550781 21.046875 4.175781 20.34375 3.871094 19.605469 C 3.566406 18.867188 3.335938 18.109375 3.179688 17.324219 C 3.023438 16.542969 2.945312 15.75 2.945312 14.953125 C 2.945312 14.152344 3.023438 13.363281 3.179688 12.578125 C 3.335938 11.796875 3.566406 11.035156 3.871094 10.296875 C 4.175781 9.558594 4.550781 8.859375 4.996094 8.195312 C 5.4375 7.53125 5.941406 6.914062 6.507812 6.351562 C 7.074219 5.785156 7.6875 5.28125 8.351562 4.839844 C 9.015625 4.394531 9.714844 4.019531 10.453125 3.714844 C 11.191406 3.410156 11.953125 3.175781 12.734375 3.023438 C 13.519531 2.867188 14.308594 2.789062 15.109375 2.789062 C 15.90625 2.789062 16.699219 2.867188 17.480469 3.023438 C 18.265625 3.175781 19.027344 3.410156 19.761719 3.714844 C 20.5 4.019531 21.203125 4.394531 21.867188 4.839844 C 22.53125 5.28125 23.144531 5.785156 23.710938 6.351562 C 24.273438 6.914062 24.777344 7.53125 25.222656 8.195312 C 25.667969 8.859375 26.039062 9.558594 26.347656 10.296875 C 26.652344 11.035156 26.882812 11.796875 27.039062 12.578125 C 27.195312 13.363281 27.273438 14.152344 27.273438 14.953125 C 27.273438 15.75 27.191406 16.539062 27.035156 17.324219 C 26.878906 18.105469 26.648438 18.867188 26.34375 19.605469 C 26.035156 20.339844 25.660156 21.042969 25.21875 21.707031 C 24.773438 22.371094 24.269531 22.984375 23.707031 23.546875 C 23.140625 24.113281 22.527344 24.617188 21.863281 25.0625 C 21.199219 25.503906 20.5 25.878906 19.761719 26.1875 C 19.023438 26.492188 18.265625 26.722656 17.480469 26.878906 C 16.699219 27.035156 15.90625 27.113281 15.109375 27.113281 Z M 15.109375 27.113281 " fill-opacity="1" fill-rule="nonzero"/></g></svg>