<svg xmlns="http://www.w3.org/2000/svg" xmlns:xlink="http://www.w3.org/1999/xlink" width="40" zoomAndPan="magnify" viewBox="0 0 30 30.000001" height="40" preserveAspectRatio="xMidYMid meet" version="1.0"><defs><clipPath id="bfa81b25e0"><path d="M 2.339844 2.253906 L 27.742188 2.253906 L 27.742188 26.929688 L 2.339844 26.929688 Z M 2.339844 2.253906 " clip-rule="nonzero"/></clipPath></defs><g clip-path="url(#bfa81b25e0)"><path fill="#fefefe" d="M 15.996094 16.382812 C 14.757812 15.523438 13.78125 14.300781 13.210938 12.898438 L 13.167969 12.800781 L 13.242188 12.738281 C 13.339844 12.660156 13.433594 12.585938 13.527344 12.511719 C 13.78125 12.316406 13.855469 11.964844 13.761719 11.664062 C 13.558594 11.019531 13.453125 10.34375 13.433594 9.667969 C 13.421875 9.304688 13.199219 8.941406 12.832031 8.898438 C 12.628906 8.875 12.417969 8.855469 12.207031 8.832031 C 10.820312 8.609375 10.246094 10.472656 10.425781 11.566406 C 11.007812 15.105469 13.402344 18.097656 16.695312 19.394531 C 17.710938 19.804688 19.636719 19.609375 19.699219 18.183594 C 19.722656 17.980469 19.742188 17.777344 19.761719 17.574219 C 19.792969 17.199219 19.476562 16.886719 19.136719 16.8125 C 18.480469 16.660156 17.859375 16.414062 17.277344 16.082031 C 17.011719 15.933594 16.652344 15.933594 16.40625 16.148438 C 16.3125 16.234375 16.21875 16.308594 16.121094 16.382812 L 16.046875 16.445312 L 15.964844 16.394531 Z M 15.210938 2.257812 C 21.871094 2.257812 27.269531 7.726562 27.269531 14.472656 C 27.269531 21.21875 21.871094 26.6875 15.210938 26.6875 C 12.132812 26.6875 9.316406 25.519531 7.1875 23.589844 L 3.070312 24.394531 C 2.277344 24.542969 2.183594 24.15625 2.550781 23.449219 L 3.960938 18.847656 C 3.441406 17.488281 3.167969 16.019531 3.167969 14.472656 C 3.167969 7.726562 8.566406 2.257812 15.222656 2.257812 Z M 15.242188 5.132812 C 20.261719 5.132812 24.335938 9.261719 24.335938 14.34375 C 24.335938 19.4375 20.261719 23.558594 15.242188 23.558594 C 12.914062 23.558594 10.796875 22.679688 9.1875 21.21875 L 6.363281 21.765625 C 5.769531 21.882812 5.683594 21.59375 5.972656 21.058594 L 6.753906 17.648438 C 6.363281 16.617188 6.152344 15.515625 6.152344 14.34375 C 6.152344 9.25 10.226562 5.132812 15.242188 5.132812 Z M 15.242188 5.132812 " fill-opacity="1" fill-rule="evenodd"/></g></svg>